<?xml version="1.0" encoding="utf-8"?>
<!-- Generator: Adobe Illustrator 24.1.2, SVG Export Plug-In . SVG Version: 6.00 Build 0)  -->
<svg version="1.1" id="Layer_1" xmlns="http://www.w3.org/2000/svg" xmlns:xlink="http://www.w3.org/1999/xlink" x="0px" y="0px"
	 viewBox="0 0 300 300" style="enable-background:new 0 0 300 300;" xml:space="preserve">
<style type="text/css">
	.st0{fill:#FFDA00;}
	.st1{fill:#75ADDE;}
	.st2{fill:#EA5B68;}
</style>
<g>
	<path class="st0" d="M107.89,207.36c-7.58-7.64-13.58-16.69-17.66-26.65c-4.08-9.96-6.15-20.62-6.1-31.39
		c-0.02-10.76,2.1-21.41,6.25-31.34c4.15-9.93,10.24-18.92,17.9-26.47c5.8-6.08,9-14.18,8.91-22.57s-3.45-16.43-9.38-22.39
		c-5.93-5.95-13.94-9.36-22.34-9.49s-16.52,3.02-22.62,8.8c-27.5,27.37-43.01,64.54-43.13,103.33s15.17,76.06,42.5,103.6
		c2.95,3.12,6.51,5.63,10.44,7.36c3.94,1.73,8.18,2.66,12.48,2.73c4.3,0.06,8.57-0.73,12.56-2.34c3.99-1.61,7.61-4,10.66-7.03
		c3.05-3.04,5.46-6.65,7.09-10.63c1.63-3.98,2.45-8.25,2.4-12.54c-0.05-4.3-0.95-8.54-2.66-12.49
		C113.48,213.89,111,210.33,107.89,207.36z"/>
	<path class="st1" d="M108.29,91.51c7.64-7.58,16.69-13.59,26.65-17.66c9.96-4.08,20.63-6.15,31.39-6.1
		c10.76-0.02,21.41,2.11,31.34,6.26c9.93,4.15,18.92,10.23,26.47,17.9c2.91,3.27,6.45,5.91,10.41,7.77
		c3.96,1.85,8.26,2.88,12.63,3.02c4.37,0.13,8.73-0.62,12.79-2.22c4.07-1.6,7.77-4.01,10.88-7.1c3.11-3.08,5.55-6.76,7.19-10.82
		c1.64-4.06,2.43-8.4,2.33-12.78c-0.1-4.37-1.1-8.68-2.92-12.65s-4.44-7.54-7.68-10.47c-13.5-13.67-29.55-24.53-47.27-31.97
		S185.79,3.38,166.58,3.3c-19.21-0.08-38.24,3.64-56,10.94S76.66,32.27,63.05,45.82c-5.42,6.12-8.32,14.08-8.09,22.25
		c0.23,8.18,3.55,15.96,9.31,21.77s13.5,9.22,21.67,9.53C94.13,99.68,102.11,96.88,108.29,91.51z"/>
	<path class="st2" d="M223.93,207.76c-7.64,7.58-16.69,13.58-26.65,17.66c-9.96,4.08-20.62,6.15-31.39,6.1
		c-10.76,0.01-21.41-2.12-31.34-6.26c-9.92-4.15-18.92-10.23-26.47-17.9c-2.98-2.99-6.53-5.37-10.43-7
		c-3.9-1.63-8.09-2.47-12.31-2.48c-4.23-0.01-8.42,0.81-12.32,2.42c-3.91,1.61-7.46,3.97-10.46,6.96c-2.99,2.98-5.37,6.53-7,10.43
		c-1.63,3.9-2.47,8.09-2.48,12.31c-0.01,4.23,0.81,8.42,2.42,12.32c1.61,3.91,3.97,7.46,6.96,10.46
		c13.51,13.67,29.6,24.54,47.32,31.98c17.72,7.44,36.75,11.31,55.96,11.38c19.22,0.08,38.27-3.65,56.05-10.95
		c17.78-7.3,33.94-18.04,47.56-31.61c3.01-2.98,5.4-6.53,7.04-10.44c1.64-3.91,2.49-8.1,2.51-12.34c0.02-4.24-0.8-8.43-2.4-12.36
		c-1.61-3.92-3.96-7.49-6.94-10.5c-2.98-3.01-6.53-5.4-10.44-7.04c-3.91-1.64-8.1-2.49-12.34-2.51c-4.24-0.02-8.44,0.8-12.35,2.4
		C230.51,202.41,226.95,204.77,223.93,207.76z"/>
</g>
</svg>
